<?xml version="1.0" encoding="UTF-8" standalone="no"?>
<svg
   xmlns:dc="http://purl.org/dc/elements/1.1/"
   xmlns:cc="http://creativecommons.org/ns#"
   xmlns:rdf="http://www.w3.org/1999/02/22-rdf-syntax-ns#"
   xmlns:svg="http://www.w3.org/2000/svg"
   xmlns="http://www.w3.org/2000/svg"
   xmlns:sodipodi="http://sodipodi.sourceforge.net/DTD/sodipodi-0.dtd"
   xmlns:inkscape="http://www.inkscape.org/namespaces/inkscape"
   inkscape:version="1.0 (4035a4fb49, 2020-05-01)"
   sodipodi:docname="biesel.svg"
   id="svg56"
   version="1.1"
   height="100"
   width="320">
  <metadata
     id="metadata62">
    <rdf:RDF>
      <cc:Work
         rdf:about="">
        <dc:format>image/svg+xml</dc:format>
        <dc:type
           rdf:resource="http://purl.org/dc/dcmitype/StillImage" />
        <dc:title></dc:title>
      </cc:Work>
    </rdf:RDF>
  </metadata>
  <defs
     id="defs60" />
  <sodipodi:namedview
     inkscape:current-layer="svg56"
     inkscape:window-maximized="1"
     inkscape:window-y="-8"
     inkscape:window-x="-8"
     inkscape:cy="56.265918"
     inkscape:cx="178.77055"
     inkscape:zoom="2"
     showgrid="false"
     id="namedview58"
     inkscape:window-height="705"
     inkscape:window-width="1366"
     inkscape:pageshadow="2"
     inkscape:pageopacity="0"
     guidetolerance="10"
     gridtolerance="10"
     objecttolerance="10"
     borderopacity="1"
     bordercolor="#666666"
     pagecolor="#20282d" />
  <path
     id="path4"
     d="M20 0L20 10L10 10L10 20L0 20L0 80L10 80L10 90L20 90L20 100L300 100L300 90L310 90L310 80L320 80L320 20L310 20L310 10L300 10L300 0L20 0z"
     style="fill:#071149; stroke:none;" />
  <path
     id="path8"
     d="M180 10L180 20L170 20L170 30L180 30L180 20L190 20L190 10L180 10z"
     style="fill:#092668; stroke:none;" />
  <path
     id="path10"
     d="M190 10L190 20L180 20L180 30L170 30L170 70L180 70L180 80L190 80L190 90L200 90L200 10L190 10z"
     style="fill:#3f47cc; stroke:none;" />
  <path
     id="path12"
     d="M200 10L200 30L210 30L210 40L200 40L200 60L210 60L210 70L200 70L200 90L280 90L280 70L270 70L270 60L280 60L280 40L270 40L270 30L280 30L280 10L200 10z"
     style="fill:#ffffff; stroke:none;" />
  <path
     id="path14"
     d="M280 10L280 90L290 90L290 80L300 80L300 70L310 70L310 30L300 30L300 20L290 20L290 10L280 10z"
     style="fill:#3f47cc; stroke:none;" />
  <path
     id="path16"
     d="M290 10L290 20L300 20L300 10L290 10z"
     style="fill:#092668; stroke:none;" />
  <path
     id="path18"
     d="M20 20L20 80L50 80L50 70L60 70L60 50L50 50L50 40L60 40L60 30L50 30L50 20L20 20M80 20L80 30L70 30L70 50L100 50L100 70L70 70L70 80L100 80L100 70L110 70L110 40L80 40L80 30L110 30L110 20L80 20M120 20L120 70L130 70L130 80L160 80L160 70L130 70L130 20L120 20z"
     style="fill:#b8d2e1; stroke:none;" />
  <path
     id="path20"
     d="M210 20L210 30L220 30L220 20L210 20z"
     style="fill:#ba3737; stroke:none;" />
  <path
     id="path22"
     d="M230 20L230 30L220 30L220 50L230 50L230 80L240 80L240 50L250 50L250 40L260 40L260 30L250 30L250 20L230 20z"
     style="fill:#0f021a; stroke:none;" />
  <path
     id="path24"
     d="M260 20L260 30L270 30L270 20L260 20z"
     style="fill:#ba3737; stroke:none;" />
  <path
     id="path26"
     d="M300 20L300 30L310 30L310 20L300 20z"
     style="fill:#092668; stroke:none;" />
  <path
     id="path28"
     d="M30 30L30 40L50 40L50 30L30 30z"
     style="fill:#071149; stroke:none;" />
  <path
     id="path30"
     d="M200 30L200 40L210 40L210 30L200 30z"
     style="fill:#ba3737; stroke:none;" />
  <path
     id="path32"
     d="M240 30L240 40L250 40L250 30L240 30z"
     style="fill:#5b5b5b; stroke:none;" />
  <path
     id="path34"
     d="M270 30L270 40L280 40L280 30L270 30z"
     style="fill:#ba3737; stroke:none;" />
  <path
     id="path36"
     d="M250 40L250 50L260 50L260 40L250 40z"
     style="fill:#5b5b5b; stroke:none;" />
  <path
     id="path38"
     d="M30 50L30 70L50 70L50 50L30 50z"
     style="fill:#071149; stroke:none;" />
  <path
     id="path40"
     d="M240 50L240 80L250 80L250 50L240 50z"
     style="fill:#5b5b5b; stroke:none;" />
  <path
     id="path42"
     d="M200 60L200 70L210 70L210 60L200 60M270 60L270 70L280 70L280 60L270 60z"
     style="fill:#ba3737; stroke:none;" />
  <path
     id="path44"
     d="M170 70L170 80L180 80L180 70L170 70z"
     style="fill:#092668; stroke:none;" />
  <path
     id="path46"
     d="M210 70L210 80L220 80L220 70L210 70M260 70L260 80L270 80L270 70L260 70z"
     style="fill:#ba3737; stroke:none;" />
  <path
     id="path48"
     d="M300 70L300 80L310 80L310 70L300 70z"
     style="fill:#092668; stroke:none;" />
  <path
     id="path52"
     d="M180 80L180 90L190 90L190 80L180 80M290 80L290 90L300 90L300 80L290 80z"
     style="fill:#092668; stroke:none;" />
</svg>
