<?xml version="1.0" encoding="UTF-8" standalone="no"?>
<svg
   xmlns:dc="http://purl.org/dc/elements/1.1/"
   xmlns:cc="http://creativecommons.org/ns#"
   xmlns:rdf="http://www.w3.org/1999/02/22-rdf-syntax-ns#"
   xmlns:svg="http://www.w3.org/2000/svg"
   xmlns="http://www.w3.org/2000/svg"
   xmlns:sodipodi="http://sodipodi.sourceforge.net/DTD/sodipodi-0.dtd"
   xmlns:inkscape="http://www.inkscape.org/namespaces/inkscape"
   inkscape:version="1.0 (4035a4fb49, 2020-05-01)"
   sodipodi:docname="dionae.svg"
   id="svg46"
   version="1.1"
   height="100"
   width="320">
  <metadata
     id="metadata52">
    <rdf:RDF>
      <cc:Work
         rdf:about="">
        <dc:format>image/svg+xml</dc:format>
        <dc:type
           rdf:resource="http://purl.org/dc/dcmitype/StillImage" />
      </cc:Work>
    </rdf:RDF>
  </metadata>
  <defs
     id="defs50" />
  <sodipodi:namedview
     inkscape:current-layer="svg46"
     inkscape:window-maximized="1"
     inkscape:window-y="-8"
     inkscape:window-x="-8"
     inkscape:cy="50"
     inkscape:cx="160"
     inkscape:zoom="3.278125"
     showgrid="false"
     id="namedview48"
     inkscape:window-height="705"
     inkscape:window-width="1366"
     inkscape:pageshadow="2"
     inkscape:pageopacity="0"
     guidetolerance="10"
     gridtolerance="10"
     objecttolerance="10"
     borderopacity="1"
     bordercolor="#666666"
     pagecolor="#ffffff" />
  <path
     id="path4"
     d="M20 0L20 10L10 10L10 20L0 20L0 80L10 80L10 90L20 90L20 100L300 100L300 90L310 90L310 80L320 80L320 20L310 20L310 10L300 10L300 0L20 0z"
     style="fill:#071149; stroke:none;" />
  <path
     id="path8"
     d="M180 10L180 20L170 20L170 30L180 30L180 20L190 20L190 10L180 10z"
     style="fill:#1a5f4e; stroke:none;" />
  <path
     id="path10"
     d="M190 10L190 20L180 20L180 30L170 30L170 70L180 70L180 80L190 80L190 90L200 90L200 80L190 80L190 70L180 70L180 50L190 50L190 40L220 40L220 30L240 30L240 20L260 20L260 10L190 10z"
     style="fill:#336864; stroke:none;" />
  <path
     id="path12"
     d="M260 10L260 20L240 20L240 30L220 30L220 40L190 40L190 50L180 50L180 70L190 70L190 80L200 80L200 90L210 90L210 80L200 80L200 70L190 70L190 50L220 50L220 40L240 40L240 30L260 30L260 20L280 20L280 30L290 30L290 60L280 60L280 70L270 70L270 80L250 80L250 90L270 90L270 80L280 80L280 70L290 70L290 60L300 60L300 30L310 30L310 20L300 20L300 10L290 10L290 20L280 20L280 10L260 10z"
     style="fill:#1a5f4e; stroke:none;" />
  <path
     id="path14"
     d="M280 10L280 20L290 20L290 10L280 10z"
     style="fill:#336864; stroke:none;" />
  <path
     id="path16"
     d="M30 20L30 30L20 30L20 60L50 60L50 70L20 70L20 80L50 80L50 70L60 70L60 50L30 50L30 30L60 30L60 20L30 20M70 20L70 80L80 80L80 50L90 50L90 70L100 70L100 80L110 80L110 20L100 20L100 50L90 50L90 30L80 30L80 20L70 20M130 20L130 30L120 30L120 70L130 70L130 80L160 80L160 50L140 50L140 60L150 60L150 70L130 70L130 30L160 30L160 20L130 20z"
     style="fill:#b9e931; stroke:none;" />
  <path
     id="path18"
     d="M260 20L260 30L240 30L240 40L220 40L220 50L190 50L190 70L200 70L200 80L210 80L210 90L250 90L250 80L270 80L270 70L280 70L280 60L290 60L290 30L280 30L280 20L260 20z"
     style="fill:#39863b; stroke:none;" />
  <path
     id="path20"
     d="M290 20L290 30L300 30L300 20L290 20z"
     style="fill:#336864; stroke:none;" />
  <path
     id="path22"
     d="M260 30L260 40L240 40L240 50L220 50L220 60L200 60L200 70L220 70L220 60L240 60L240 70L250 70L250 60L240 60L240 50L260 50L260 60L270 60L270 50L280 50L280 40L270 40L270 30L260 30z"
     style="fill:#66c714; stroke:none;" />
  <path
     id="path24"
     d="M300 30L300 60L290 60L290 70L280 70L280 80L270 80L270 90L290 90L290 80L300 80L300 70L310 70L310 30L300 30z"
     style="fill:#336864; stroke:none;" />
  <path
     id="path26"
     d="M260 40L260 50L270 50L270 40L260 40M240 50L240 60L260 60L260 50L240 50z"
     style="fill:#39863b; stroke:none;" />
  <path
     id="path28"
     d="M270 50L270 60L280 60L280 50L270 50z"
     style="fill:#b9e931; stroke:none;" />
  <path
     id="path30"
     d="M220 60L220 70L240 70L240 60L220 60z"
     style="fill:#39863b; stroke:none;" />
  <path
     id="path32"
     d="M250 60L250 70L270 70L270 60L250 60z"
     style="fill:#b9e931; stroke:none;" />
  <path
     id="path34"
     d="M170 70L170 80L180 80L180 70L170 70z"
     style="fill:#1a5f4e; stroke:none;" />
  <path
     id="path36"
     d="M210 70L210 80L250 80L250 70L210 70z"
     style="fill:#b9e931; stroke:none;" />
  <path
     id="path38"
     d="M300 70L300 80L310 80L310 70L300 70z"
     style="fill:#1a5f4e; stroke:none;" />
  <path
     id="path42"
     d="M180 80L180 90L190 90L190 80L180 80M290 80L290 90L300 90L300 80L290 80z"
     style="fill:#1a5f4e; stroke:none;" />
</svg>
