<?xml version="1.0" encoding="UTF-8" standalone="no"?>
<svg
   xmlns:dc="http://purl.org/dc/elements/1.1/"
   xmlns:cc="http://creativecommons.org/ns#"
   xmlns:rdf="http://www.w3.org/1999/02/22-rdf-syntax-ns#"
   xmlns:svg="http://www.w3.org/2000/svg"
   xmlns="http://www.w3.org/2000/svg"
   xmlns:sodipodi="http://sodipodi.sourceforge.net/DTD/sodipodi-0.dtd"
   xmlns:inkscape="http://www.inkscape.org/namespaces/inkscape"
   inkscape:version="1.0 (4035a4fb49, 2020-05-01)"
   sodipodi:docname="dominia.svg"
   id="svg34"
   version="1.1"
   height="100"
   width="320">
  <metadata
     id="metadata40">
    <rdf:RDF>
      <cc:Work
         rdf:about="">
        <dc:format>image/svg+xml</dc:format>
        <dc:type
           rdf:resource="http://purl.org/dc/dcmitype/StillImage" />
      </cc:Work>
    </rdf:RDF>
  </metadata>
  <defs
     id="defs38" />
  <sodipodi:namedview
     inkscape:current-layer="svg34"
     inkscape:window-maximized="1"
     inkscape:window-y="-8"
     inkscape:window-x="-8"
     inkscape:cy="50"
     inkscape:cx="160"
     inkscape:zoom="3.278125"
     showgrid="false"
     id="namedview36"
     inkscape:window-height="705"
     inkscape:window-width="1366"
     inkscape:pageshadow="2"
     inkscape:pageopacity="0"
     guidetolerance="10"
     gridtolerance="10"
     objecttolerance="10"
     borderopacity="1"
     bordercolor="#666666"
     pagecolor="#ffffff" />
  <path
     id="path4"
     d="M20 0L20 10L10 10L10 20L0 20L0 80L10 80L10 90L20 90L20 100L300 100L300 90L310 90L310 80L320 80L320 20L310 20L310 10L300 10L300 0L20 0z"
     style="fill:#071149; stroke:none;" />
  <path
     id="path8"
     d="M180 10L180 20L170 20L170 30L180 30L180 20L190 20L190 10L180 10z"
     style="fill:#6e2121; stroke:none;" />
  <path
     id="path10"
     d="M190 10L190 20L180 20L180 30L170 30L170 40L220 40L220 50L230 50L230 60L240 60L240 30L250 30L250 20L260 20L260 10L190 10z"
     style="fill:#ba3737; stroke:none;" />
  <path
     id="path12"
     d="M260 10L260 20L250 20L250 30L240 30L240 60L230 60L230 50L220 50L220 40L170 40L170 50L220 50L220 60L230 60L230 70L240 70L240 90L250 90L250 30L260 30L260 20L270 20L270 10L260 10z"
     style="fill:#ffffff; stroke:none;" />
  <path
     id="path14"
     d="M270 10L270 20L260 20L260 30L250 30L250 90L290 90L290 80L300 80L300 70L310 70L310 30L300 30L300 20L290 20L290 10L270 10z"
     style="fill:#7d245a; stroke:none;" />
  <path
     id="path16"
     d="M290 10L290 20L300 20L300 10L290 10z"
     style="fill:#5d2145; stroke:none;" />
  <path
     id="path18"
     d="M10 20L10 80L40 80L40 70L50 70L50 30L40 30L40 20L10 20M60 20L60 80L100 80L100 20L60 20M110 20L110 80L120 80L120 30L130 30L130 80L140 80L140 30L150 30L150 80L160 80L160 30L150 30L150 20L140 20L140 30L130 30L130 20L110 20z"
     style="fill:#f290a0; stroke:none;" />
  <path
     id="path20"
     d="M300 20L300 30L310 30L310 20L300 20z"
     style="fill:#5d2145; stroke:none;" />
  <path
     id="path22"
     d="M20 30L20 70L40 70L40 30L20 30M70 30L70 70L90 70L90 30L70 30z"
     style="fill:#071149; stroke:none;" />
  <path
     id="path24"
     d="M170 50L170 70L180 70L180 80L190 80L190 90L240 90L240 70L230 70L230 60L220 60L220 50L170 50z"
     style="fill:#7d245a; stroke:none;" />
  <path
     id="path26"
     d="M170 70L170 80L180 80L180 70L170 70M300 70L300 80L310 80L310 70L300 70z"
     style="fill:#5d2145; stroke:none;" />
  <path
     id="path30"
     d="M180 80L180 90L190 90L190 80L180 80M290 80L290 90L300 90L300 80L290 80z"
     style="fill:#5d2145; stroke:none;" />
</svg>
