<?xml version="1.0" encoding="UTF-8" standalone="no"?>
<svg
   xmlns:dc="http://purl.org/dc/elements/1.1/"
   xmlns:cc="http://creativecommons.org/ns#"
   xmlns:rdf="http://www.w3.org/1999/02/22-rdf-syntax-ns#"
   xmlns:svg="http://www.w3.org/2000/svg"
   xmlns="http://www.w3.org/2000/svg"
   xmlns:sodipodi="http://sodipodi.sourceforge.net/DTD/sodipodi-0.dtd"
   xmlns:inkscape="http://www.inkscape.org/namespaces/inkscape"
   inkscape:version="1.0 (4035a4fb49, 2020-05-01)"
   sodipodi:docname="himeo.svg"
   id="svg76"
   version="1.1"
   height="100"
   width="320">
  <metadata
     id="metadata82">
    <rdf:RDF>
      <cc:Work
         rdf:about="">
        <dc:format>image/svg+xml</dc:format>
        <dc:type
           rdf:resource="http://purl.org/dc/dcmitype/StillImage" />
      </cc:Work>
    </rdf:RDF>
  </metadata>
  <defs
     id="defs80" />
  <sodipodi:namedview
     inkscape:current-layer="svg76"
     inkscape:window-maximized="1"
     inkscape:window-y="-8"
     inkscape:window-x="-8"
     inkscape:cy="50"
     inkscape:cx="160"
     inkscape:zoom="3.278125"
     showgrid="false"
     id="namedview78"
     inkscape:window-height="705"
     inkscape:window-width="1366"
     inkscape:pageshadow="2"
     inkscape:pageopacity="0"
     guidetolerance="10"
     gridtolerance="10"
     objecttolerance="10"
     borderopacity="1"
     bordercolor="#666666"
     pagecolor="#ffffff" />
  <path
     id="path4"
     d="M20 0L20 10L10 10L10 20L0 20L0 80L10 80L10 90L20 90L20 100L300 100L300 90L310 90L310 80L320 80L320 20L310 20L310 10L300 10L300 0L20 0z"
     style="fill:#071149; stroke:none;" />
  <path
     id="path8"
     d="M180 10L180 20L190 20L190 30L180 30L180 40L170 40L170 50L180 50L180 40L190 40L190 70L180 70L180 60L170 60L170 70L180 70L180 80L190 80L190 90L220 90L220 80L260 80L260 90L290 90L290 80L300 80L300 70L310 70L310 60L300 60L300 70L290 70L290 40L300 40L300 50L310 50L310 40L300 40L300 30L290 30L290 20L300 20L300 10L180 10z"
     style="fill:#0d0d0d; stroke:none;" />
  <path
     id="path10"
     d="M20 20L20 80L30 80L30 50L50 50L50 80L60 80L60 20L50 20L50 40L30 40L30 20L20 20M70 20L70 30L80 30L80 70L70 70L70 80L100 80L100 70L90 70L90 30L100 30L100 20L70 20M110 20L110 80L120 80L120 30L130 30L130 80L140 80L140 30L150 30L150 80L160 80L160 30L150 30L150 20L140 20L140 30L130 30L130 20L110 20z"
     style="fill:#ffffff; stroke:none;" />
  <path
     id="path12"
     d="M170 20L170 30L180 30L180 20L170 20z"
     style="fill:#6d1300; stroke:none;" />
  <path
     id="path14"
     d="M180 20L180 30L190 30L190 20L180 20z"
     style="fill:#9e0000; stroke:none;" />
  <path
     id="path16"
     d="M220 20L220 30L230 30L230 20L220 20z"
     style="fill:#b6b6b6; stroke:none;" />
  <path
     id="path18"
     d="M230 20L230 30L250 30L250 20L230 20z"
     style="fill:#f2f2f2; stroke:none;" />
  <path
     id="path20"
     d="M250 20L250 30L260 30L260 20L250 20z"
     style="fill:#b6b6b6; stroke:none;" />
  <path
     id="path22"
     d="M290 20L290 30L300 30L300 40L310 40L310 30L300 30L300 20L290 20z"
     style="fill:#9e0000; stroke:none;" />
  <path
     id="path24"
     d="M300 20L300 30L310 30L310 20L300 20z"
     style="fill:#6d1300; stroke:none;" />
  <path
     id="path26"
     d="M170 30L170 40L180 40L180 30L170 30z"
     style="fill:#9e0000; stroke:none;" />
  <path
     id="path28"
     d="M210 30L210 40L220 40L220 30L210 30z"
     style="fill:#f2f2f2; stroke:none;" />
  <path
     id="path30"
     d="M220 30L220 40L210 40L210 50L220 50L220 40L230 40L230 30L220 30z"
     style="fill:#9e0000; stroke:none;" />
  <path
     id="path32"
     d="M230 30L230 40L220 40L220 50L210 50L210 60L230 60L230 50L250 50L250 60L270 60L270 50L260 50L260 40L250 40L250 30L230 30z"
     style="fill:#0d0d0d; stroke:none;" />
  <path
     id="path34"
     d="M250 30L250 40L260 40L260 50L270 50L270 40L260 40L260 30L250 30z"
     style="fill:#9e0000; stroke:none;" />
  <path
     id="path36"
     d="M260 30L260 40L270 40L270 30L260 30z"
     style="fill:#f2f2f2; stroke:none;" />
  <path
     id="path38"
     d="M180 40L180 50L170 50L170 60L180 60L180 70L190 70L190 40L180 40z"
     style="fill:#9e0000; stroke:none;" />
  <path
     id="path40"
     d="M200 40L200 50L210 50L210 40L200 40M270 40L270 50L280 50L280 40L270 40z"
     style="fill:#b6b6b6; stroke:none;" />
  <path
     id="path42"
     d="M290 40L290 70L300 70L300 60L310 60L310 50L300 50L300 40L290 40z"
     style="fill:#9e0000; stroke:none;" />
  <path
     id="path44"
     d="M200 50L200 60L210 60L210 50L200 50M230 50L230 60L250 60L250 50L230 50M270 50L270 60L280 60L280 50L270 50z"
     style="fill:#f2f2f2; stroke:none;" />
  <path
     id="path46"
     d="M200 60L200 70L210 70L210 60L200 60z"
     style="fill:#b6b6b6; stroke:none;" />
  <path
     id="path48"
     d="M210 60L210 70L220 70L220 60L210 60z"
     style="fill:#9e0000; stroke:none;" />
  <path
     id="path50"
     d="M220 60L220 70L230 70L230 60L220 60M250 60L250 70L260 70L260 60L250 60z"
     style="fill:#b6b6b6; stroke:none;" />
  <path
     id="path52"
     d="M260 60L260 70L270 70L270 60L260 60z"
     style="fill:#9e0000; stroke:none;" />
  <path
     id="path54"
     d="M270 60L270 70L280 70L280 60L270 60z"
     style="fill:#b6b6b6; stroke:none;" />
  <path
     id="path56"
     d="M170 70L170 80L180 80L180 70L170 70z"
     style="fill:#6d1300; stroke:none;" />
  <path
     id="path58"
     d="M210 70L210 80L220 80L220 70L210 70M260 70L260 80L270 80L270 70L260 70z"
     style="fill:#f2f2f2; stroke:none;" />
  <path
     id="path60"
     d="M300 70L300 80L310 80L310 70L300 70z"
     style="fill:#6d1300; stroke:none;" />
  <path
     id="path64"
     d="M180 80L180 90L190 90L190 80L180 80z"
     style="fill:#6d1300; stroke:none;" />
  <path
     id="path66"
     d="M220 80L220 90L230 90L230 80L220 80z"
     style="fill:#b6b6b6; stroke:none;" />
  <path
     id="path68"
     d="M230 80L230 90L250 90L250 80L230 80z"
     style="fill:#f2f2f2; stroke:none;" />
  <path
     id="path70"
     d="M250 80L250 90L260 90L260 80L250 80z"
     style="fill:#b6b6b6; stroke:none;" />
  <path
     id="path72"
     d="M290 80L290 90L300 90L300 80L290 80z"
     style="fill:#6d1300; stroke:none;" />
</svg>
