<?xml version="1.0" encoding="UTF-8" standalone="no"?>
<svg
   xmlns:dc="http://purl.org/dc/elements/1.1/"
   xmlns:cc="http://creativecommons.org/ns#"
   xmlns:rdf="http://www.w3.org/1999/02/22-rdf-syntax-ns#"
   xmlns:svg="http://www.w3.org/2000/svg"
   xmlns="http://www.w3.org/2000/svg"
   xmlns:sodipodi="http://sodipodi.sourceforge.net/DTD/sodipodi-0.dtd"
   xmlns:inkscape="http://www.inkscape.org/namespaces/inkscape"
   inkscape:version="1.0 (4035a4fb49, 2020-05-01)"
   sodipodi:docname="konyang.svg"
   id="svg42"
   version="1.1"
   height="100"
   width="320">
  <metadata
     id="metadata48">
    <rdf:RDF>
      <cc:Work
         rdf:about="">
        <dc:format>image/svg+xml</dc:format>
        <dc:type
           rdf:resource="http://purl.org/dc/dcmitype/StillImage" />
      </cc:Work>
    </rdf:RDF>
  </metadata>
  <defs
     id="defs46" />
  <sodipodi:namedview
     inkscape:current-layer="svg42"
     inkscape:window-maximized="1"
     inkscape:window-y="-8"
     inkscape:window-x="-8"
     inkscape:cy="50"
     inkscape:cx="160"
     inkscape:zoom="3.278125"
     showgrid="false"
     id="namedview44"
     inkscape:window-height="705"
     inkscape:window-width="1366"
     inkscape:pageshadow="2"
     inkscape:pageopacity="0"
     guidetolerance="10"
     gridtolerance="10"
     objecttolerance="10"
     borderopacity="1"
     bordercolor="#666666"
     pagecolor="#ffffff" />
  <path
     id="path4"
     d="M20 0L20 10L10 10L10 20L0 20L0 80L10 80L10 90L20 90L20 100L300 100L300 90L310 90L310 80L320 80L320 20L310 20L310 10L300 10L300 0L20 0z"
     style="fill:#071149; stroke:none;" />
  <path
     id="path8"
     d="M180 10L180 20L170 20L170 30L180 30L180 20L190 20L190 10L180 10z"
     style="fill:#485600; stroke:none;" />
  <path
     id="path10"
     d="M190 10L190 20L180 20L180 30L170 30L170 70L180 70L180 80L190 80L190 90L290 90L290 80L300 80L300 70L310 70L310 30L300 30L300 20L290 20L290 10L190 10z"
     style="fill:#5f7005; stroke:none;" />
  <path
     id="path12"
     d="M290 10L290 20L300 20L300 10L290 10z"
     style="fill:#485600; stroke:none;" />
  <path
     id="path14"
     d="M20 20L20 80L30 80L30 50L40 50L40 60L50 60L50 80L60 80L60 60L50 60L50 50L40 50L40 40L50 40L50 30L60 30L60 20L50 20L50 30L40 30L40 40L30 40L30 20L20 20M70 20L70 80L80 80L80 50L90 50L90 60L100 60L100 80L110 80L110 20L100 20L100 50L90 50L90 40L80 40L80 20L70 20M120 20L120 40L130 40L130 50L150 50L150 70L120 70L120 80L150 80L150 70L160 70L160 20L150 20L150 40L130 40L130 20L120 20z"
     style="fill:#cfce3f; stroke:none;" />
  <path
     id="path16"
     d="M200 20L200 30L190 30L190 70L200 70L200 80L210 80L210 70L200 70L200 30L210 30L210 20L200 20z"
     style="fill:#9cbbdc; stroke:none;" />
  <path
     id="path18"
     d="M210 20L210 30L200 30L200 70L210 70L210 80L220 80L220 20L210 20z"
     style="fill:#b8d2e1; stroke:none;" />
  <path
     id="path20"
     d="M220 20L220 80L260 80L260 20L220 20z"
     style="fill:#d0dfe1; stroke:none;" />
  <path
     id="path22"
     d="M260 20L260 80L270 80L270 70L280 70L280 30L270 30L270 20L260 20z"
     style="fill:#b8d2e1; stroke:none;" />
  <path
     id="path24"
     d="M270 20L270 30L280 30L280 20L270 20z"
     style="fill:#9cbbdc; stroke:none;" />
  <path
     id="path26"
     d="M300 20L300 30L310 30L310 20L300 20z"
     style="fill:#485600; stroke:none;" />
  <path
     id="path28"
     d="M280 30L280 70L290 70L290 30L280 30z"
     style="fill:#9cbbdc; stroke:none;" />
  <path
     id="path30"
     d="M170 70L170 80L180 80L180 70L170 70z"
     style="fill:#485600; stroke:none;" />
  <path
     id="path32"
     d="M270 70L270 80L280 80L280 70L270 70z"
     style="fill:#9cbbdc; stroke:none;" />
  <path
     id="path34"
     d="M300 70L300 80L310 80L310 70L300 70z"
     style="fill:#485600; stroke:none;" />
  <path
     id="path38"
     d="M180 80L180 90L190 90L190 80L180 80M290 80L290 90L300 90L300 80L290 80z"
     style="fill:#485600; stroke:none;" />
</svg>
