<?xml version="1.0" encoding="UTF-8" standalone="no"?>
<svg
   xmlns:dc="http://purl.org/dc/elements/1.1/"
   xmlns:cc="http://creativecommons.org/ns#"
   xmlns:rdf="http://www.w3.org/1999/02/22-rdf-syntax-ns#"
   xmlns:svg="http://www.w3.org/2000/svg"
   xmlns="http://www.w3.org/2000/svg"
   xmlns:sodipodi="http://sodipodi.sourceforge.net/DTD/sodipodi-0.dtd"
   xmlns:inkscape="http://www.inkscape.org/namespaces/inkscape"
   inkscape:version="1.0 (4035a4fb49, 2020-05-01)"
   sodipodi:docname="skrell.svg"
   id="svg42"
   version="1.1"
   height="100"
   width="320">
  <metadata
     id="metadata48">
    <rdf:RDF>
      <cc:Work
         rdf:about="">
        <dc:format>image/svg+xml</dc:format>
        <dc:type
           rdf:resource="http://purl.org/dc/dcmitype/StillImage" />
      </cc:Work>
    </rdf:RDF>
  </metadata>
  <defs
     id="defs46" />
  <sodipodi:namedview
     inkscape:current-layer="svg42"
     inkscape:window-maximized="1"
     inkscape:window-y="-8"
     inkscape:window-x="-8"
     inkscape:cy="50"
     inkscape:cx="160"
     inkscape:zoom="3.278125"
     showgrid="false"
     id="namedview44"
     inkscape:window-height="705"
     inkscape:window-width="1366"
     inkscape:pageshadow="2"
     inkscape:pageopacity="0"
     guidetolerance="10"
     gridtolerance="10"
     objecttolerance="10"
     borderopacity="1"
     bordercolor="#666666"
     pagecolor="#ffffff" />
  <path
     id="path4"
     d="M20 0L20 10L10 10L10 20L0 20L0 80L10 80L10 90L20 90L20 100L300 100L300 90L310 90L310 80L320 80L320 20L310 20L310 10L300 10L300 0L20 0z"
     style="fill:#071149; stroke:none;" />
  <path
     id="path8"
     d="M180 10L180 20L170 20L170 30L180 30L180 20L190 20L190 10L180 10z"
     style="fill:#3c0b46; stroke:none;" />
  <path
     id="path10"
     d="M190 10L190 20L180 20L180 30L170 30L170 40L240 40L240 30L250 30L250 20L280 20L280 30L290 30L290 40L310 40L310 30L300 30L300 20L290 20L290 10L190 10z"
     style="fill:#5c086c; stroke:none;" />
  <path
     id="path12"
     d="M290 10L290 20L300 20L300 10L290 10z"
     style="fill:#3c0b46; stroke:none;" />
  <path
     id="path14"
     d="M20 20L20 80L30 80L30 50L40 50L40 70L50 70L50 80L60 80L60 20L50 20L50 50L40 50L40 30L30 30L30 20L20 20M70 20L70 80L80 80L80 60L100 60L100 80L110 80L110 60L100 60L100 50L110 50L110 30L100 30L100 20L70 20M120 20L120 70L130 70L130 80L160 80L160 70L130 70L130 20L120 20z"
     style="fill:#b8d2e1; stroke:none;" />
  <path
     id="path16"
     d="M250 20L250 30L240 30L240 40L250 40L250 50L240 50L240 60L250 60L250 70L260 70L260 60L250 60L250 50L260 50L260 40L250 40L250 30L260 30L260 20L250 20z"
     style="fill:#3c0b46; stroke:none;" />
  <path
     id="path18"
     d="M260 20L260 30L250 30L250 40L260 40L260 30L270 30L270 40L280 40L280 50L270 50L270 60L260 60L260 50L250 50L250 60L260 60L260 70L270 70L270 60L280 60L280 50L310 50L310 40L280 40L280 30L270 30L270 20L260 20z"
     style="fill:#ffffff; stroke:none;" />
  <path
     id="path20"
     d="M270 20L270 30L280 30L280 20L270 20M300 20L300 30L310 30L310 20L300 20z"
     style="fill:#3c0b46; stroke:none;" />
  <path
     id="path22"
     d="M80 30L80 50L100 50L100 30L80 30z"
     style="fill:#071149; stroke:none;" />
  <path
     id="path24"
     d="M260 30L260 60L270 60L270 30L260 30z"
     style="fill:#5c086c; stroke:none;" />
  <path
     id="path26"
     d="M280 30L280 40L290 40L290 30L280 30z"
     style="fill:#3c0b46; stroke:none;" />
  <path
     id="path28"
     d="M170 40L170 50L250 50L250 40L170 40z"
     style="fill:#ffffff; stroke:none;" />
  <path
     id="path30"
     d="M270 40L270 50L280 50L280 40L270 40z"
     style="fill:#3c0b46; stroke:none;" />
  <path
     id="path32"
     d="M170 50L170 70L180 70L180 80L190 80L190 90L290 90L290 80L300 80L300 70L310 70L310 50L290 50L290 60L280 60L280 70L250 70L250 60L240 60L240 50L170 50z"
     style="fill:#5c086c; stroke:none;" />
  <path
     id="path34"
     d="M280 50L280 60L290 60L290 50L280 50M270 60L270 70L280 70L280 60L270 60M170 70L170 80L180 80L180 70L170 70M300 70L300 80L310 80L310 70L300 70z"
     style="fill:#3c0b46; stroke:none;" />
  <path
     id="path38"
     d="M180 80L180 90L190 90L190 80L180 80M290 80L290 90L300 90L300 80L290 80z"
     style="fill:#3c0b46; stroke:none;" />
</svg>
