<?xml version="1.0" encoding="UTF-8" standalone="no"?>
<svg
   xmlns:dc="http://purl.org/dc/elements/1.1/"
   xmlns:cc="http://creativecommons.org/ns#"
   xmlns:rdf="http://www.w3.org/1999/02/22-rdf-syntax-ns#"
   xmlns:svg="http://www.w3.org/2000/svg"
   xmlns="http://www.w3.org/2000/svg"
   xmlns:sodipodi="http://sodipodi.sourceforge.net/DTD/sodipodi-0.dtd"
   xmlns:inkscape="http://www.inkscape.org/namespaces/inkscape"
   inkscape:version="1.0 (4035a4fb49, 2020-05-01)"
   sodipodi:docname="tajara_rural.svg"
   id="svg40"
   version="1.1"
   height="100"
   width="320">
  <metadata
     id="metadata46">
    <rdf:RDF>
      <cc:Work
         rdf:about="">
        <dc:format>image/svg+xml</dc:format>
        <dc:type
           rdf:resource="http://purl.org/dc/dcmitype/StillImage" />
      </cc:Work>
    </rdf:RDF>
  </metadata>
  <defs
     id="defs44" />
  <sodipodi:namedview
     inkscape:current-layer="svg40"
     inkscape:window-maximized="1"
     inkscape:window-y="-8"
     inkscape:window-x="-8"
     inkscape:cy="50"
     inkscape:cx="160"
     inkscape:zoom="3.278125"
     showgrid="false"
     id="namedview42"
     inkscape:window-height="705"
     inkscape:window-width="1366"
     inkscape:pageshadow="2"
     inkscape:pageopacity="0"
     guidetolerance="10"
     gridtolerance="10"
     objecttolerance="10"
     borderopacity="1"
     bordercolor="#666666"
     pagecolor="#ffffff" />
  <path
     id="path4"
     d="M20 0L20 10L10 10L10 20L0 20L0 80L10 80L10 90L20 90L20 100L300 100L300 90L310 90L310 80L320 80L320 20L310 20L310 10L300 10L300 0L20 0z"
     style="fill:#071149; stroke:none;" />
  <path
     id="path8"
     d="M180 10L180 20L170 20L170 30L180 30L180 20L190 20L190 10L180 10z"
     style="fill:#490f03; stroke:none;" />
  <path
     id="path10"
     d="M190 10L190 20L180 20L180 30L170 30L170 70L180 70L180 80L190 80L190 90L200 90L200 70L210 70L210 60L220 60L220 50L230 50L230 40L220 40L220 30L210 30L210 20L220 20L220 10L190 10z"
     style="fill:#6d1300; stroke:none;" />
  <path
     id="path12"
     d="M220 10L220 20L210 20L210 30L220 30L220 40L230 40L230 50L220 50L220 60L210 60L210 70L200 70L200 90L220 90L220 80L230 80L230 70L240 70L240 60L250 60L250 70L260 70L260 80L270 80L270 70L280 70L280 50L270 50L270 30L260 30L260 20L240 20L240 10L220 10z"
     style="fill:#490f03; stroke:none;" />
  <path
     id="path14"
     d="M240 10L240 20L260 20L260 30L270 30L270 50L280 50L280 70L270 70L270 80L260 80L260 70L250 70L250 60L240 60L240 70L230 70L230 80L220 80L220 90L290 90L290 80L300 80L300 70L310 70L310 30L300 30L300 20L290 20L290 10L240 10z"
     style="fill:#6d1300; stroke:none;" />
  <path
     id="path16"
     d="M290 10L290 20L300 20L300 10L290 10z"
     style="fill:#490f03; stroke:none;" />
  <path
     id="path18"
     d="M20 20L20 80L50 80L50 70L60 70L60 30L50 30L50 20L20 20M80 20L80 30L70 30L70 70L80 70L80 80L110 80L110 70L80 70L80 50L110 50L110 40L80 40L80 30L110 30L110 20L80 20M120 20L120 70L130 70L130 80L160 80L160 70L130 70L130 20L120 20z"
     style="fill:#ffffff; stroke:none;" />
  <path
     id="path20"
     d="M220 20L220 30L240 30L240 40L250 40L250 50L260 50L260 70L270 70L270 50L260 50L260 40L250 40L250 30L240 30L240 20L220 20z"
     style="fill:#f2f2f2; stroke:none;" />
  <path
     id="path22"
     d="M300 20L300 30L310 30L310 20L300 20z"
     style="fill:#490f03; stroke:none;" />
  <path
     id="path24"
     d="M30 30L30 70L50 70L50 30L30 30z"
     style="fill:#071149; stroke:none;" />
  <path
     id="path26"
     d="M250 30L250 40L260 40L260 30L250 30M240 40L240 50L250 50L250 40L240 40M230 50L230 60L240 60L240 50L230 50M220 60L220 70L230 70L230 60L220 60z"
     style="fill:#b6b6b6; stroke:none;" />
  <path
     id="path28"
     d="M170 70L170 80L180 80L180 70L170 70z"
     style="fill:#490f03; stroke:none;" />
  <path
     id="path30"
     d="M210 70L210 80L220 80L220 70L210 70z"
     style="fill:#b6b6b6; stroke:none;" />
  <path
     id="path32"
     d="M300 70L300 80L310 80L310 70L300 70z"
     style="fill:#490f03; stroke:none;" />
  <path
     id="path36"
     d="M180 80L180 90L190 90L190 80L180 80M290 80L290 90L300 90L300 80L290 80z"
     style="fill:#490f03; stroke:none;" />
</svg>
