<?xml version="1.0" encoding="UTF-8" standalone="no"?>
<svg
   xmlns:dc="http://purl.org/dc/elements/1.1/"
   xmlns:cc="http://creativecommons.org/ns#"
   xmlns:rdf="http://www.w3.org/1999/02/22-rdf-syntax-ns#"
   xmlns:svg="http://www.w3.org/2000/svg"
   xmlns="http://www.w3.org/2000/svg"
   xmlns:sodipodi="http://sodipodi.sourceforge.net/DTD/sodipodi-0.dtd"
   xmlns:inkscape="http://www.inkscape.org/namespaces/inkscape"
   inkscape:version="1.0 (4035a4fb49, 2020-05-01)"
   sodipodi:docname="tajara_oldyassa.svg"
   id="svg38"
   version="1.1"
   height="100"
   width="320">
  <metadata
     id="metadata44">
    <rdf:RDF>
      <cc:Work
         rdf:about="">
        <dc:format>image/svg+xml</dc:format>
        <dc:type
           rdf:resource="http://purl.org/dc/dcmitype/StillImage" />
      </cc:Work>
    </rdf:RDF>
  </metadata>
  <defs
     id="defs42" />
  <sodipodi:namedview
     inkscape:current-layer="svg38"
     inkscape:window-maximized="1"
     inkscape:window-y="-8"
     inkscape:window-x="-8"
     inkscape:cy="50"
     inkscape:cx="160"
     inkscape:zoom="3.278125"
     showgrid="false"
     id="namedview40"
     inkscape:window-height="705"
     inkscape:window-width="1366"
     inkscape:pageshadow="2"
     inkscape:pageopacity="0"
     guidetolerance="10"
     gridtolerance="10"
     objecttolerance="10"
     borderopacity="1"
     bordercolor="#666666"
     pagecolor="#ffffff" />
  <path
     id="path4"
     d="M20 0L20 10L10 10L10 20L0 20L0 80L10 80L10 90L20 90L20 100L300 100L300 90L310 90L310 80L320 80L320 20L310 20L310 10L300 10L300 0L20 0z"
     style="fill:#071149; stroke:none;" />
  <path
     id="path8"
     d="M180 10L180 20L190 20L190 10L180 10z"
     style="fill:#5c086c; stroke:none;" />
  <path
     id="path10"
     d="M190 10L190 20L180 20L180 80L230 80L230 70L220 70L220 60L210 60L210 50L200 50L200 40L210 40L210 30L230 30L230 40L250 40L250 30L270 30L270 40L280 40L280 50L270 50L270 60L260 60L260 70L250 70L250 80L300 80L300 20L290 20L290 10L190 10z"
     style="fill:#8a0682; stroke:none;" />
  <path
     id="path12"
     d="M290 10L290 20L300 20L300 10L290 10z"
     style="fill:#5c086c; stroke:none;" />
  <path
     id="path14"
     d="M20 20L20 40L30 40L30 50L50 50L50 70L20 70L20 80L50 80L50 70L60 70L60 20L50 20L50 40L30 40L30 20L20 20M80 20L80 30L70 30L70 50L100 50L100 70L70 70L70 80L100 80L100 70L110 70L110 40L80 40L80 30L110 30L110 20L80 20M130 20L130 30L120 30L120 80L130 80L130 60L150 60L150 80L160 80L160 30L150 30L150 20L130 20z"
     style="fill:#ffffff; stroke:none;" />
  <path
     id="path16"
     d="M170 20L170 30L180 30L180 20L170 20z"
     style="fill:#e59737; stroke:none;" />
  <path
     id="path18"
     d="M230 20L230 30L250 30L250 20L230 20z"
     style="fill:#fbefef; stroke:none;" />
  <path
     id="path20"
     d="M300 20L300 30L310 30L310 20L300 20z"
     style="fill:#e59737; stroke:none;" />
  <path
     id="path22"
     d="M130 30L130 50L150 50L150 30L130 30z"
     style="fill:#071149; stroke:none;" />
  <path
     id="path24"
     d="M170 30L170 70L180 70L180 30L170 30z"
     style="fill:#f6ce48; stroke:none;" />
  <path
     id="path26"
     d="M210 30L210 40L230 40L230 50L250 50L250 40L270 40L270 30L250 30L250 40L230 40L230 30L210 30z"
     style="fill:#fbefef; stroke:none;" />
  <path
     id="path28"
     d="M300 30L300 70L310 70L310 30L300 30M200 40L200 50L210 50L210 60L220 60L220 70L230 70L230 80L190 80L190 90L290 90L290 80L250 80L250 70L260 70L260 60L270 60L270 50L280 50L280 40L270 40L270 50L250 50L250 70L230 70L230 50L210 50L210 40L200 40z"
     style="fill:#f6ce48; stroke:none;" />
  <path
     id="path30"
     d="M210 40L210 50L230 50L230 40L210 40M250 40L250 50L270 50L270 40L250 40M230 50L230 70L250 70L250 50L230 50M170 70L170 80L180 80L180 70L170 70M300 70L300 80L310 80L310 70L300 70z"
     style="fill:#e59737; stroke:none;" />
  <path
     id="path34"
     d="M180 80L180 90L190 90L190 80L180 80M290 80L290 90L300 90L300 80L290 80z"
     style="fill:#e59737; stroke:none;" />
</svg>
