<?xml version="1.0" encoding="UTF-8" standalone="no"?>
<svg
   xmlns:dc="http://purl.org/dc/elements/1.1/"
   xmlns:cc="http://creativecommons.org/ns#"
   xmlns:rdf="http://www.w3.org/1999/02/22-rdf-syntax-ns#"
   xmlns:svg="http://www.w3.org/2000/svg"
   xmlns="http://www.w3.org/2000/svg"
   xmlns:sodipodi="http://sodipodi.sourceforge.net/DTD/sodipodi-0.dtd"
   xmlns:inkscape="http://www.inkscape.org/namespaces/inkscape"
   inkscape:version="1.0 (4035a4fb49, 2020-05-01)"
   sodipodi:docname="tajara_nomad.svg"
   id="svg50"
   version="1.1"
   height="100"
   width="320">
  <metadata
     id="metadata56">
    <rdf:RDF>
      <cc:Work
         rdf:about="">
        <dc:format>image/svg+xml</dc:format>
        <dc:type
           rdf:resource="http://purl.org/dc/dcmitype/StillImage" />
      </cc:Work>
    </rdf:RDF>
  </metadata>
  <defs
     id="defs54" />
  <sodipodi:namedview
     inkscape:current-layer="svg50"
     inkscape:window-maximized="1"
     inkscape:window-y="-8"
     inkscape:window-x="-8"
     inkscape:cy="50"
     inkscape:cx="160"
     inkscape:zoom="3.278125"
     showgrid="false"
     id="namedview52"
     inkscape:window-height="705"
     inkscape:window-width="1366"
     inkscape:pageshadow="2"
     inkscape:pageopacity="0"
     guidetolerance="10"
     gridtolerance="10"
     objecttolerance="10"
     borderopacity="1"
     bordercolor="#666666"
     pagecolor="#ffffff" />
  <path
     id="path4"
     d="M20 0L20 10L10 10L10 20L0 20L0 80L10 80L10 90L20 90L20 100L300 100L300 90L310 90L310 80L320 80L320 20L310 20L310 10L300 10L300 0L20 0z"
     style="fill:#071149; stroke:none;" />
  <path
     id="path8"
     d="M180 10L180 20L170 20L170 30L180 30L180 20L190 20L190 10L180 10z"
     style="fill:#9cbbdc; stroke:none;" />
  <path
     id="path10"
     d="M190 10L190 20L180 20L180 30L170 30L170 60L180 60L180 50L190 50L190 40L200 40L200 30L220 30L220 20L230 20L230 10L190 10z"
     style="fill:#b8d2e1; stroke:none;" />
  <path
     id="path12"
     d="M230 10L230 20L220 20L220 30L200 30L200 40L190 40L190 50L180 50L180 60L170 60L170 70L180 70L180 60L190 60L190 50L200 50L200 40L220 40L220 30L230 30L230 20L240 20L240 10L230 10z"
     style="fill:#9cbbdc; stroke:none;" />
  <path
     id="path14"
     d="M240 10L240 20L230 20L230 30L220 30L220 40L210 40L210 60L220 60L220 50L230 50L230 40L240 40L240 30L250 30L250 10L240 10z"
     style="fill:#8a8a8a; stroke:none;" />
  <path
     id="path16"
     d="M250 10L250 20L260 20L260 40L280 40L280 50L290 50L290 60L300 60L300 70L310 70L310 60L300 60L300 50L290 50L290 40L280 40L280 30L270 30L270 20L260 20L260 10L250 10z"
     style="fill:#5b5b5b; stroke:none;" />
  <path
     id="path18"
     d="M260 10L260 20L270 20L270 30L280 30L280 40L290 40L290 50L300 50L300 60L310 60L310 50L300 50L300 40L290 40L290 30L280 30L280 20L270 20L270 10L260 10z"
     style="fill:#9cbbdc; stroke:none;" />
  <path
     id="path20"
     d="M270 10L270 20L280 20L280 30L290 30L290 40L300 40L300 50L310 50L310 30L300 30L300 20L290 20L290 10L270 10z"
     style="fill:#b8d2e1; stroke:none;" />
  <path
     id="path22"
     d="M290 10L290 20L300 20L300 10L290 10z"
     style="fill:#9cbbdc; stroke:none;" />
  <path
     id="path24"
     d="M20 20L20 80L50 80L50 70L60 70L60 30L50 30L50 20L20 20M80 20L80 30L70 30L70 70L80 70L80 80L110 80L110 70L80 70L80 50L110 50L110 40L80 40L80 30L110 30L110 20L80 20M120 20L120 70L130 70L130 80L160 80L160 70L130 70L130 20L120 20z"
     style="fill:#ffffff; stroke:none;" />
  <path
     id="path26"
     d="M250 20L250 30L240 30L240 40L230 40L230 50L220 50L220 70L250 70L250 60L260 60L260 50L270 50L270 40L260 40L260 20L250 20z"
     style="fill:#272727; stroke:none;" />
  <path
     id="path28"
     d="M300 20L300 30L310 30L310 20L300 20z"
     style="fill:#9cbbdc; stroke:none;" />
  <path
     id="path30"
     d="M30 30L30 70L50 70L50 30L30 30z"
     style="fill:#071149; stroke:none;" />
  <path
     id="path32"
     d="M200 40L200 50L190 50L190 60L180 60L180 80L200 80L200 70L210 70L210 40L200 40z"
     style="fill:#b6b6b6; stroke:none;" />
  <path
     id="path34"
     d="M270 40L270 50L260 50L260 60L250 60L250 70L240 70L240 80L230 80L230 90L260 90L260 80L270 80L270 70L280 70L280 40L270 40z"
     style="fill:#f2f2f2; stroke:none;" />
  <path
     id="path36"
     d="M280 50L280 60L290 60L290 70L300 70L300 60L290 60L290 50L280 50z"
     style="fill:#b6b6b6; stroke:none;" />
  <path
     id="path38"
     d="M210 60L210 70L200 70L200 80L190 80L190 90L230 90L230 80L240 80L240 70L220 70L220 60L210 60z"
     style="fill:#5b5b5b; stroke:none;" />
  <path
     id="path40"
     d="M280 60L280 70L270 70L270 80L260 80L260 90L290 90L290 80L310 80L310 70L290 70L290 60L280 60M170 70L170 80L180 80L180 70L170 70z"
     style="fill:#8a8a8a; stroke:none;" />
  <path
     id="path44"
     d="M180 80L180 90L190 90L190 80L180 80z"
     style="fill:#8a8a8a; stroke:none;" />
  <path
     id="path46"
     d="M290 80L290 90L300 90L300 80L290 80z"
     style="fill:#5b5b5b; stroke:none;" />
</svg>
