<?xml version="1.0" encoding="UTF-8" standalone="no"?>
<svg
   xmlns:dc="http://purl.org/dc/elements/1.1/"
   xmlns:cc="http://creativecommons.org/ns#"
   xmlns:rdf="http://www.w3.org/1999/02/22-rdf-syntax-ns#"
   xmlns:svg="http://www.w3.org/2000/svg"
   xmlns="http://www.w3.org/2000/svg"
   xmlns:sodipodi="http://sodipodi.sourceforge.net/DTD/sodipodi-0.dtd"
   xmlns:inkscape="http://www.inkscape.org/namespaces/inkscape"
   inkscape:version="1.0 (4035a4fb49, 2020-05-01)"
   sodipodi:docname="tajara_nazira.svg"
   id="svg56"
   version="1.1"
   height="100"
   width="320">
  <metadata
     id="metadata62">
    <rdf:RDF>
      <cc:Work
         rdf:about="">
        <dc:format>image/svg+xml</dc:format>
        <dc:type
           rdf:resource="http://purl.org/dc/dcmitype/StillImage" />
      </cc:Work>
    </rdf:RDF>
  </metadata>
  <defs
     id="defs60" />
  <sodipodi:namedview
     inkscape:current-layer="svg56"
     inkscape:window-maximized="1"
     inkscape:window-y="-8"
     inkscape:window-x="-8"
     inkscape:cy="50"
     inkscape:cx="160"
     inkscape:zoom="3.278125"
     showgrid="false"
     id="namedview58"
     inkscape:window-height="705"
     inkscape:window-width="1366"
     inkscape:pageshadow="2"
     inkscape:pageopacity="0"
     guidetolerance="10"
     gridtolerance="10"
     objecttolerance="10"
     borderopacity="1"
     bordercolor="#666666"
     pagecolor="#ffffff" />
  <path
     id="path4"
     d="M20 0L20 10L10 10L10 20L0 20L0 80L10 80L10 90L20 90L20 100L300 100L300 90L310 90L310 80L320 80L320 20L310 20L310 10L300 10L300 0L20 0z"
     style="fill:#071149; stroke:none;" />
  <path
     id="path8"
     d="M180 10L180 20L170 20L170 30L180 30L180 20L190 20L190 10L180 10z"
     style="fill:#b6b6b6; stroke:none;" />
  <path
     id="path10"
     d="M190 10L190 20L180 20L180 30L170 30L170 70L180 70L180 80L190 80L190 90L220 90L220 80L210 80L210 70L200 70L200 60L190 60L190 40L200 40L200 30L210 30L210 20L220 20L220 10L190 10z"
     style="fill:#ffffff; stroke:none;" />
  <path
     id="path12"
     d="M220 10L220 20L240 20L240 10L220 10z"
     style="fill:#f2f2f2; stroke:none;" />
  <path
     id="path14"
     d="M240 10L240 20L250 20L250 10L240 10z"
     style="fill:#ffffff; stroke:none;" />
  <path
     id="path16"
     d="M250 10L250 20L270 20L270 10L250 10z"
     style="fill:#f2f2f2; stroke:none;" />
  <path
     id="path18"
     d="M270 10L270 20L280 20L280 30L290 30L290 40L300 40L300 60L290 60L290 70L280 70L280 80L270 80L270 90L290 90L290 80L300 80L300 70L310 70L310 30L300 30L300 20L290 20L290 10L270 10z"
     style="fill:#ffffff; stroke:none;" />
  <path
     id="path20"
     d="M290 10L290 20L300 20L300 10L290 10z"
     style="fill:#b6b6b6; stroke:none;" />
  <path
     id="path22"
     d="M20 20L20 80L30 80L30 50L40 50L40 70L50 70L50 80L60 80L60 20L50 20L50 50L40 50L40 30L30 30L30 20L20 20M70 20L70 30L100 30L100 40L90 40L90 50L80 50L80 60L70 60L70 80L110 80L110 70L80 70L80 60L90 60L90 50L100 50L100 40L110 40L110 20L70 20M120 20L120 80L130 80L130 60L150 60L150 80L160 80L160 60L150 60L150 50L160 50L160 30L150 30L150 20L120 20z"
     style="fill:#ffffff; stroke:none;" />
  <path
     id="path24"
     d="M210 20L210 30L200 30L200 40L210 40L210 30L220 30L220 20L210 20z"
     style="fill:#b6b6b6; stroke:none;" />
  <path
     id="path26"
     d="M220 20L220 30L210 30L210 40L200 40L200 60L210 60L210 70L220 70L220 80L240 80L240 70L250 70L250 80L270 80L270 70L280 70L280 60L290 60L290 40L280 40L280 30L270 30L270 20L250 20L250 30L240 30L240 20L220 20z"
     style="fill:#000000; stroke:none;" />
  <path
     id="path28"
     d="M240 20L240 30L250 30L250 20L240 20M270 20L270 30L280 30L280 20L270 20M300 20L300 30L310 30L310 20L300 20z"
     style="fill:#b6b6b6; stroke:none;" />
  <path
     id="path30"
     d="M130 30L130 50L150 50L150 30L130 30z"
     style="fill:#071149; stroke:none;" />
  <path
     id="path32"
     d="M250 30L250 40L260 40L260 30L250 30z"
     style="fill:#b6b6b6; stroke:none;" />
  <path
     id="path34"
     d="M260 30L260 40L270 40L270 60L260 60L260 70L270 70L270 60L280 60L280 40L270 40L270 30L260 30z"
     style="fill:#ffffff; stroke:none;" />
  <path
     id="path36"
     d="M280 30L280 40L290 40L290 30L280 30z"
     style="fill:#b6b6b6; stroke:none;" />
  <path
     id="path38"
     d="M190 40L190 60L200 60L200 40L190 40M260 40L260 60L270 60L270 40L260 40M290 40L290 60L300 60L300 40L290 40z"
     style="fill:#f2f2f2; stroke:none;" />
  <path
     id="path40"
     d="M200 60L200 70L210 70L210 60L200 60M250 60L250 70L260 70L260 60L250 60M280 60L280 70L290 70L290 60L280 60M170 70L170 80L180 80L180 70L170 70M210 70L210 80L220 80L220 70L210 70M240 70L240 80L250 80L250 70L240 70M270 70L270 80L280 80L280 70L270 70M300 70L300 80L310 80L310 70L300 70z"
     style="fill:#b6b6b6; stroke:none;" />
  <path
     id="path44"
     d="M180 80L180 90L190 90L190 80L180 80z"
     style="fill:#b6b6b6; stroke:none;" />
  <path
     id="path46"
     d="M220 80L220 90L240 90L240 80L220 80z"
     style="fill:#f2f2f2; stroke:none;" />
  <path
     id="path48"
     d="M240 80L240 90L250 90L250 80L240 80z"
     style="fill:#ffffff; stroke:none;" />
  <path
     id="path50"
     d="M250 80L250 90L270 90L270 80L250 80z"
     style="fill:#f2f2f2; stroke:none;" />
  <path
     id="path52"
     d="M290 80L290 90L300 90L300 80L290 80z"
     style="fill:#b6b6b6; stroke:none;" />
</svg>
