<?xml version="1.0" encoding="UTF-8" standalone="no"?>
<svg
   xmlns:dc="http://purl.org/dc/elements/1.1/"
   xmlns:cc="http://creativecommons.org/ns#"
   xmlns:rdf="http://www.w3.org/1999/02/22-rdf-syntax-ns#"
   xmlns:svg="http://www.w3.org/2000/svg"
   xmlns="http://www.w3.org/2000/svg"
   xmlns:sodipodi="http://sodipodi.sourceforge.net/DTD/sodipodi-0.dtd"
   xmlns:inkscape="http://www.inkscape.org/namespaces/inkscape"
   inkscape:version="1.0 (4035a4fb49, 2020-05-01)"
   sodipodi:docname="tajara_amohda.svg"
   id="svg42"
   version="1.1"
   height="100"
   width="320">
  <metadata
     id="metadata48">
    <rdf:RDF>
      <cc:Work
         rdf:about="">
        <dc:format>image/svg+xml</dc:format>
        <dc:type
           rdf:resource="http://purl.org/dc/dcmitype/StillImage" />
      </cc:Work>
    </rdf:RDF>
  </metadata>
  <defs
     id="defs46" />
  <sodipodi:namedview
     inkscape:current-layer="svg42"
     inkscape:window-maximized="1"
     inkscape:window-y="-8"
     inkscape:window-x="-8"
     inkscape:cy="50"
     inkscape:cx="160"
     inkscape:zoom="3.278125"
     showgrid="false"
     id="namedview44"
     inkscape:window-height="705"
     inkscape:window-width="1366"
     inkscape:pageshadow="2"
     inkscape:pageopacity="0"
     guidetolerance="10"
     gridtolerance="10"
     objecttolerance="10"
     borderopacity="1"
     bordercolor="#666666"
     pagecolor="#ffffff" />
  <path
     id="path4"
     d="M20 0L20 10L10 10L10 20L0 20L0 80L10 80L10 90L20 90L20 100L300 100L300 90L310 90L310 80L320 80L320 20L310 20L310 10L300 10L300 0L20 0z"
     style="fill:#071149; stroke:none;" />
  <path
     id="path8"
     d="M180 10L180 20L170 20L170 30L180 30L180 20L190 20L190 10L180 10z"
     style="fill:#5c086c; stroke:none;" />
  <path
     id="path10"
     d="M190 10L190 20L180 20L180 30L170 30L170 70L180 70L180 80L200 80L200 70L210 70L210 60L200 60L200 50L210 50L210 40L220 40L220 50L230 50L230 40L240 40L240 30L250 30L250 20L260 20L260 10L190 10z"
     style="fill:#8a0682; stroke:none;" />
  <path
     id="path12"
     d="M260 10L260 20L250 20L250 30L240 30L240 40L230 40L230 50L220 50L220 40L210 40L210 50L200 50L200 60L210 60L210 70L200 70L200 80L180 80L180 90L200 90L200 80L210 80L210 90L220 90L220 80L230 80L230 90L240 90L240 80L250 80L250 70L240 70L240 60L250 60L250 50L260 50L260 40L270 40L270 30L280 30L280 20L300 20L300 30L310 30L310 20L300 20L300 10L280 10L280 20L270 20L270 10L260 10z"
     style="fill:#5c086c; stroke:none;" />
  <path
     id="path14"
     d="M270 10L270 20L280 20L280 10L270 10z"
     style="fill:#f2f2f2; stroke:none;" />
  <path
     id="path16"
     d="M20 20L20 30L10 30L10 80L20 80L20 60L40 60L40 80L50 80L50 30L40 30L40 20L20 20M60 20L60 80L70 80L70 30L80 30L80 80L90 80L90 30L100 30L100 80L110 80L110 30L100 30L100 20L90 20L90 30L80 30L80 20L60 20M130 20L130 30L120 30L120 70L130 70L130 80L150 80L150 70L160 70L160 30L150 30L150 20L130 20z"
     style="fill:#ffffff; stroke:none;" />
  <path
     id="path18"
     d="M260 20L260 30L250 30L250 40L240 40L240 50L230 50L230 60L240 60L240 50L250 50L250 40L260 40L260 30L270 30L270 20L260 20z"
     style="fill:#f2f2f2; stroke:none;" />
  <path
     id="path20"
     d="M280 20L280 30L270 30L270 40L260 40L260 50L250 50L250 60L240 60L240 70L250 70L250 80L240 80L240 90L290 90L290 80L300 80L300 70L310 70L310 30L300 30L300 20L280 20z"
     style="fill:#8a0682; stroke:none;" />
  <path
     id="path22"
     d="M20 30L20 50L40 50L40 30L20 30M130 30L130 70L150 70L150 30L130 30z"
     style="fill:#071149; stroke:none;" />
  <path
     id="path24"
     d="M210 50L210 60L220 60L220 50L210 50M220 60L220 70L230 70L230 60L220 60z"
     style="fill:#8a8a8a; stroke:none;" />
  <path
     id="path26"
     d="M170 70L170 80L180 80L180 70L170 70z"
     style="fill:#5c086c; stroke:none;" />
  <path
     id="path28"
     d="M210 70L210 80L220 80L220 70L210 70M230 70L230 80L240 80L240 70L230 70z"
     style="fill:#8a8a8a; stroke:none;" />
  <path
     id="path30"
     d="M300 70L300 80L310 80L310 70L300 70z"
     style="fill:#5c086c; stroke:none;" />
  <path
     id="path34"
     d="M200 80L200 90L210 90L210 80L200 80z"
     style="fill:#8a8a8a; stroke:none;" />
  <path
     id="path36"
     d="M220 80L220 90L230 90L230 80L220 80z"
     style="fill:#8a0682; stroke:none;" />
  <path
     id="path38"
     d="M290 80L290 90L300 90L300 80L290 80z"
     style="fill:#5c086c; stroke:none;" />
</svg>
