<?xml version="1.0" encoding="UTF-8" standalone="no"?>
<svg
   xmlns:dc="http://purl.org/dc/elements/1.1/"
   xmlns:cc="http://creativecommons.org/ns#"
   xmlns:rdf="http://www.w3.org/1999/02/22-rdf-syntax-ns#"
   xmlns:svg="http://www.w3.org/2000/svg"
   xmlns="http://www.w3.org/2000/svg"
   xmlns:sodipodi="http://sodipodi.sourceforge.net/DTD/sodipodi-0.dtd"
   xmlns:inkscape="http://www.inkscape.org/namespaces/inkscape"
   inkscape:version="1.0 (4035a4fb49, 2020-05-01)"
   sodipodi:docname="trad_noble.svg"
   id="svg44"
   version="1.1"
   height="100"
   width="320">
  <metadata
     id="metadata50">
    <rdf:RDF>
      <cc:Work
         rdf:about="">
        <dc:format>image/svg+xml</dc:format>
        <dc:type
           rdf:resource="http://purl.org/dc/dcmitype/StillImage" />
      </cc:Work>
    </rdf:RDF>
  </metadata>
  <defs
     id="defs48" />
  <sodipodi:namedview
     inkscape:current-layer="svg44"
     inkscape:window-maximized="1"
     inkscape:window-y="-8"
     inkscape:window-x="-8"
     inkscape:cy="50"
     inkscape:cx="160"
     inkscape:zoom="3.278125"
     showgrid="false"
     id="namedview46"
     inkscape:window-height="705"
     inkscape:window-width="1366"
     inkscape:pageshadow="2"
     inkscape:pageopacity="0"
     guidetolerance="10"
     gridtolerance="10"
     objecttolerance="10"
     borderopacity="1"
     bordercolor="#666666"
     pagecolor="#ffffff" />
  <path
     id="path4"
     d="M20 0L20 10L10 10L10 20L0 20L0 80L10 80L10 90L20 90L20 100L300 100L300 90L310 90L310 80L320 80L320 20L310 20L310 10L300 10L300 0L20 0z"
     style="fill:#071149; stroke:none;" />
  <path
     id="path8"
     d="M180 10L180 20L170 20L170 30L180 30L180 20L190 20L190 10L180 10z"
     style="fill:#e59737; stroke:none;" />
  <path
     id="path10"
     d="M190 10L190 20L230 20L230 30L220 30L220 40L230 40L230 30L250 30L250 40L260 40L260 30L250 30L250 20L290 20L290 10L190 10z"
     style="fill:#f6ce48; stroke:none;" />
  <path
     id="path12"
     d="M290 10L290 20L300 20L300 30L310 30L310 20L300 20L300 10L290 10z"
     style="fill:#e59737; stroke:none;" />
  <path
     id="path14"
     d="M30 20L30 30L20 30L20 80L30 80L30 60L50 60L50 80L60 80L60 30L50 30L50 20L30 20M70 20L70 30L100 30L100 40L90 40L90 50L80 50L80 60L70 60L70 80L110 80L110 70L80 70L80 60L90 60L90 50L100 50L100 40L110 40L110 20L70 20M130 20L130 30L120 30L120 80L130 80L130 60L150 60L150 80L160 80L160 30L150 30L150 20L130 20z"
     style="fill:#ffffff; stroke:none;" />
  <path
     id="path16"
     d="M180 20L180 70L190 70L190 60L200 60L200 50L210 50L210 40L220 40L220 30L230 30L230 20L180 20z"
     style="fill:#39863b; stroke:none;" />
  <path
     id="path18"
     d="M250 20L250 30L260 30L260 50L250 50L250 30L230 30L230 50L220 50L220 40L210 40L210 50L200 50L200 60L190 60L190 70L180 70L180 80L200 80L200 70L210 70L210 80L250 80L250 70L260 70L260 50L280 50L280 40L290 40L290 30L300 30L300 20L250 20z"
     style="fill:#215f07; stroke:none;" />
  <path
     id="path20"
     d="M30 30L30 50L50 50L50 30L30 30M130 30L130 50L150 50L150 30L130 30z"
     style="fill:#071149; stroke:none;" />
  <path
     id="path22"
     d="M170 30L170 70L180 70L180 30L170 30z"
     style="fill:#f6ce48; stroke:none;" />
  <path
     id="path24"
     d="M290 30L290 40L280 40L280 50L270 50L270 70L250 70L250 80L270 80L270 70L280 70L280 80L300 80L300 30L290 30z"
     style="fill:#39863b; stroke:none;" />
  <path
     id="path26"
     d="M300 30L300 70L310 70L310 30L300 30z"
     style="fill:#f6ce48; stroke:none;" />
  <path
     id="path28"
     d="M220 40L220 50L230 50L230 40L220 40M250 40L250 50L260 50L260 40L250 40z"
     style="fill:#e59737; stroke:none;" />
  <path
     id="path30"
     d="M210 50L210 60L220 60L220 50L210 50M260 50L260 60L270 60L270 50L260 50z"
     style="fill:#f6ce48; stroke:none;" />
  <path
     id="path32"
     d="M210 60L210 70L220 70L220 60L210 60M260 60L260 70L270 70L270 60L260 60M170 70L170 80L180 80L180 70L170 70z"
     style="fill:#e59737; stroke:none;" />
  <path
     id="path34"
     d="M200 70L200 80L190 80L190 90L200 90L200 80L210 80L210 90L270 90L270 80L280 80L280 90L290 90L290 80L280 80L280 70L270 70L270 80L210 80L210 70L200 70z"
     style="fill:#f6ce48; stroke:none;" />
  <path
     id="path36"
     d="M300 70L300 80L310 80L310 70L300 70z"
     style="fill:#e59737; stroke:none;" />
  <path
     id="path40"
     d="M180 80L180 90L190 90L190 80L180 80M200 80L200 90L210 90L210 80L200 80M270 80L270 90L280 90L280 80L270 80M290 80L290 90L300 90L300 80L290 80z"
     style="fill:#e59737; stroke:none;" />
</svg>
