<?xml version="1.0" encoding="UTF-8" standalone="no"?>
<svg
   xmlns:dc="http://purl.org/dc/elements/1.1/"
   xmlns:cc="http://creativecommons.org/ns#"
   xmlns:rdf="http://www.w3.org/1999/02/22-rdf-syntax-ns#"
   xmlns:svg="http://www.w3.org/2000/svg"
   xmlns="http://www.w3.org/2000/svg"
   xmlns:sodipodi="http://sodipodi.sourceforge.net/DTD/sodipodi-0.dtd"
   xmlns:inkscape="http://www.inkscape.org/namespaces/inkscape"
   inkscape:version="1.0 (4035a4fb49, 2020-05-01)"
   sodipodi:docname="tts.svg"
   id="svg30"
   version="1.1"
   height="100"
   width="320">
  <metadata
     id="metadata36">
    <rdf:RDF>
      <cc:Work
         rdf:about="">
        <dc:format>image/svg+xml</dc:format>
        <dc:type
           rdf:resource="http://purl.org/dc/dcmitype/StillImage" />
      </cc:Work>
    </rdf:RDF>
  </metadata>
  <defs
     id="defs34" />
  <sodipodi:namedview
     inkscape:current-layer="svg30"
     inkscape:window-maximized="1"
     inkscape:window-y="-8"
     inkscape:window-x="-8"
     inkscape:cy="50"
     inkscape:cx="160"
     inkscape:zoom="3.278125"
     showgrid="false"
     id="namedview32"
     inkscape:window-height="705"
     inkscape:window-width="1366"
     inkscape:pageshadow="2"
     inkscape:pageopacity="0"
     guidetolerance="10"
     gridtolerance="10"
     objecttolerance="10"
     borderopacity="1"
     bordercolor="#666666"
     pagecolor="#ffffff" />
  <path
     id="path4"
     d="M20 0L20 10L10 10L10 20L0 20L0 80L10 80L10 90L20 90L20 100L300 100L300 90L310 90L310 80L320 80L320 20L310 20L310 10L300 10L300 0L20 0z"
     style="fill:#071149; stroke:none;" />
  <path
     id="path8"
     d="M180 10L180 20L170 20L170 80L180 80L180 90L190 90L190 80L180 80L180 20L190 20L190 10L180 10z"
     style="fill:#a0a0a0; stroke:none;" />
  <path
     id="path10"
     d="M190 10L190 20L180 20L180 80L190 80L190 90L290 90L290 80L300 80L300 20L290 20L290 10L190 10z"
     style="fill:#b5b5b5; stroke:none;" />
  <path
     id="path12"
     d="M290 10L290 20L300 20L300 10L290 10z"
     style="fill:#a0a0a0; stroke:none;" />
  <path
     id="path14"
     d="M30 20L30 30L40 30L40 80L50 80L50 30L60 30L60 20L30 20M70 20L70 30L80 30L80 80L90 80L90 30L100 30L100 20L70 20M120 20L120 30L110 30L110 50L140 50L140 70L110 70L110 80L140 80L140 70L150 70L150 40L120 40L120 30L150 30L150 20L120 20z"
     style="fill:#ffffff; stroke:none;" />
  <path
     id="path16"
     d="M200 20L200 70L210 70L210 80L220 80L220 70L250 70L250 80L260 80L260 70L280 70L280 20L200 20z"
     style="fill:#5e5e5e; stroke:none;" />
  <path
     id="path18"
     d="M300 20L300 80L310 80L310 20L300 20z"
     style="fill:#a0a0a0; stroke:none;" />
  <path
     id="path20"
     d="M210 30L210 50L220 50L220 60L240 60L240 50L250 50L250 60L270 60L270 40L260 40L260 30L240 30L240 40L230 40L230 30L210 30z"
     style="fill:#b5b5b5; stroke:none;" />
  <path
     id="path22"
     d="M230 30L230 40L240 40L240 30L230 30M260 30L260 40L270 40L270 30L260 30M220 40L220 50L230 50L230 40L220 40M250 40L250 50L260 50L260 40L250 40M210 50L210 60L220 60L220 50L210 50M240 50L240 60L250 60L250 50L240 50M230 70L230 80L250 80L250 70L230 70M260 70L260 80L270 80L270 70L260 70z"
     style="fill:#727272; stroke:none;" />
  <path
     id="path26"
     d="M290 80L290 90L300 90L300 80L290 80z"
     style="fill:#a0a0a0; stroke:none;" />
</svg>
